<?xml version="1.0" encoding="utf-8"?>
<!-- Generator: Adobe Illustrator 23.0.4, SVG Export Plug-In . SVG Version: 6.00 Build 0)  -->
<svg version="1.1" id="Layer_1" xmlns="http://www.w3.org/2000/svg" xmlns:xlink="http://www.w3.org/1999/xlink" x="0px" y="0px"
	 viewBox="0 0 379.6 112.5" enable-background="new 0 0 379.6 112.5" xml:space="preserve">
<g id="XMLID_19_">
	<g id="XMLID_37_">
		<path id="XMLID_65_" d="M365.5,112.5H14.1C6.3,112.5,0,106.1,0,98.4V14.1C0,6.3,6.3,0,14.1,0h351.5c7.7,0,14.1,6.3,14.1,14.1v84.3
			C379.6,106.1,373.2,112.5,365.5,112.5z"/>
	</g>
	<g id="XMLID_76_">
		<path id="XMLID_90_" fill="#FFFFFF" stroke="#FFFFFF" stroke-width="0.2" stroke-miterlimit="10" d="M133.3,28.8
			c0,2.4-0.7,4.2-2.1,5.6c-1.6,1.7-3.7,2.5-6.2,2.5c-2.4,0-4.5-0.8-6.2-2.5c-1.7-1.7-2.6-3.8-2.6-6.3c0-2.5,0.9-4.6,2.6-6.3
			c1.7-1.7,3.8-2.5,6.2-2.5c1.2,0,2.4,0.2,3.5,0.7c1.1,0.5,2,1.1,2.6,1.9l-1.5,1.5c-1.1-1.3-2.7-2-4.6-2c-1.8,0-3.3,0.6-4.6,1.9
			c-1.3,1.2-1.9,2.9-1.9,4.9s0.6,3.6,1.9,4.9c1.3,1.2,2.8,1.9,4.6,1.9c1.9,0,3.5-0.6,4.7-1.9c0.8-0.8,1.3-2,1.4-3.4H125v-2h8.2
			C133.3,28,133.3,28.4,133.3,28.8z"/>
		<path id="XMLID_88_" fill="#FFFFFF" stroke="#FFFFFF" stroke-width="0.2" stroke-miterlimit="10" d="M146.3,21.8h-7.7v5.3h6.9v2
			h-6.9v5.3h7.7v2.1h-9.8V19.7h9.8V21.8z"/>
		<path id="XMLID_86_" fill="#FFFFFF" stroke="#FFFFFF" stroke-width="0.2" stroke-miterlimit="10" d="M155.4,36.6h-2.2V21.8h-4.7
			v-2.1h11.6v2.1h-4.7V36.6z"/>
		<path id="XMLID_84_" fill="#FFFFFF" stroke="#FFFFFF" stroke-width="0.2" stroke-miterlimit="10" d="M168.5,36.6V19.7h2.2v16.9
			H168.5z"/>
		<path id="XMLID_82_" fill="#FFFFFF" stroke="#FFFFFF" stroke-width="0.2" stroke-miterlimit="10" d="M180.3,36.6h-2.2V21.8h-4.7
			v-2.1H185v2.1h-4.7V36.6z"/>
		<path id="XMLID_79_" fill="#FFFFFF" stroke="#FFFFFF" stroke-width="0.2" stroke-miterlimit="10" d="M207,34.4
			c-1.7,1.7-3.7,2.6-6.2,2.6c-2.5,0-4.5-0.9-6.2-2.6c-1.7-1.7-2.5-3.8-2.5-6.3s0.8-4.6,2.5-6.3c1.7-1.7,3.7-2.6,6.2-2.6
			c2.5,0,4.5,0.9,6.2,2.6c1.7,1.7,2.5,3.8,2.5,6.2C209.4,30.6,208.6,32.7,207,34.4z M196.2,33c1.2,1.3,2.8,1.9,4.6,1.9
			c1.8,0,3.3-0.6,4.6-1.9c1.2-1.3,1.9-2.9,1.9-4.8s-0.6-3.6-1.9-4.8c-1.2-1.3-2.8-1.9-4.6-1.9c-1.8,0-3.3,0.6-4.6,1.9
			c-1.2,1.3-1.9,2.9-1.9,4.8S194.9,31.7,196.2,33z"/>
		<path id="XMLID_77_" fill="#FFFFFF" stroke="#FFFFFF" stroke-width="0.2" stroke-miterlimit="10" d="M212.5,36.6V19.7h2.6
			l8.2,13.1h0.1l-0.1-3.3v-9.9h2.2v16.9h-2.3l-8.6-13.8h-0.1l0.1,3.3v10.5H212.5z"/>
	</g>
	<path id="XMLID_52_" fill="#FFFFFF" d="M191.6,61.2c-6.6,0-12,5-12,12c0,6.9,5.4,12,12,12c6.6,0,12-5.1,12-12
		C203.6,66.2,198.2,61.2,191.6,61.2z M191.6,80.4c-3.6,0-6.7-3-6.7-7.2c0-4.3,3.1-7.2,6.7-7.2s6.7,2.9,6.7,7.2
		C198.3,77.4,195.2,80.4,191.6,80.4z M165.4,61.2c-6.6,0-12,5-12,12c0,6.9,5.4,12,12,12c6.6,0,12-5.1,12-12
		C177.4,66.2,172,61.2,165.4,61.2z M165.4,80.4c-3.6,0-6.7-3-6.7-7.2c0-4.3,3.1-7.2,6.7-7.2c3.6,0,6.7,2.9,6.7,7.2
		C172.1,77.4,169,80.4,165.4,80.4z M134.2,64.8v5.1h12.1c-0.4,2.9-1.3,4.9-2.8,6.4c-1.8,1.8-4.5,3.7-9.4,3.7
		c-7.5,0-13.3-6-13.3-13.5S126.8,53,134.2,53c4,0,7,1.6,9.2,3.6L147,53c-3-2.9-7.1-5.1-12.7-5.1c-10.2,0-18.8,8.3-18.8,18.6
		c0,10.2,8.6,18.6,18.8,18.6c5.5,0,9.7-1.8,13-5.2c3.4-3.4,4.4-8.1,4.4-11.9c0-1.2-0.1-2.3-0.3-3.2H134.2z M261.6,68.8
		c-1-2.7-4-7.6-10.2-7.6c-6.2,0-11.3,4.8-11.3,12c0,6.7,5.1,12,11.9,12c5.5,0,8.7-3.4,10-5.3l-4.1-2.7c-1.4,2-3.2,3.3-5.9,3.3
		c-2.7,0-4.6-1.2-5.8-3.6l16-6.6L261.6,68.8z M245.3,72.8c-0.1-4.6,3.6-7,6.3-7c2.1,0,3.9,1,4.4,2.5L245.3,72.8z M232.3,84.4h5.3
		V49.2h-5.3V84.4z M223.7,63.8h-0.2c-1.2-1.4-3.4-2.7-6.3-2.7c-6,0-11.5,5.3-11.5,12c0,6.7,5.5,11.9,11.5,11.9
		c2.9,0,5.1-1.3,6.3-2.7h0.2v1.7c0,4.6-2.4,7-6.4,7c-3.2,0-5.2-2.3-6-4.3l-4.6,1.9c1.3,3.2,4.8,7.1,10.6,7.1
		c6.2,0,11.4-3.6,11.4-12.5V61.9h-5V63.8z M217.7,80.4c-3.6,0-6.7-3-6.7-7.2c0-4.2,3-7.3,6.7-7.3c3.6,0,6.4,3.1,6.4,7.3
		C224.1,77.3,221.3,80.4,217.7,80.4z M286.2,49.2h-12.6v35.1h5.2V71h7.3c5.8,0,11.5-4.2,11.5-10.9S292.1,49.2,286.2,49.2z
		 M286.4,66.1h-7.5v-12h7.5c3.9,0,6.1,3.2,6.1,6C292.5,62.8,290.3,66.1,286.4,66.1z M318.8,61.1c-3.8,0-7.7,1.7-9.4,5.4l4.7,1.9
		c1-1.9,2.8-2.6,4.8-2.6c2.7,0,5.5,1.6,5.5,4.5v0.4c-0.9-0.5-3-1.4-5.5-1.4c-5,0-10.1,2.8-10.1,7.9c0,4.7,4.1,7.7,8.7,7.7
		c3.5,0,5.5-1.6,6.7-3.4h0.2v2.7h5.1V70.8C329.5,64.6,324.8,61.1,318.8,61.1z M318.2,80.4c-1.7,0-4.1-0.9-4.1-3c0-2.7,3-3.8,5.6-3.8
		c2.3,0,3.4,0.5,4.8,1.2C324,78.1,321.2,80.4,318.2,80.4z M347.9,61.9l-6,15.2h-0.2l-6.2-15.2h-5.7l9.4,21.3L333.9,95h5.5l14.4-33.1
		H347.9z M300.7,84.4h5.2V49.2h-5.2V84.4z"/>
	<g id="XMLID_39_">
		
			<linearGradient id="XMLID_35_" gradientUnits="userSpaceOnUse" x1="61.293" y1="89.9777" x2="14.1067" y2="42.7914" gradientTransform="matrix(1 0 0 -1 0 114.4667)">
			<stop  offset="0" style="stop-color:#00A0FF"/>
			<stop  offset="6.574450e-03" style="stop-color:#00A1FF"/>
			<stop  offset="0.2601" style="stop-color:#00BEFF"/>
			<stop  offset="0.5122" style="stop-color:#00D2FF"/>
			<stop  offset="0.7604" style="stop-color:#00DFFF"/>
			<stop  offset="1" style="stop-color:#00E3FF"/>
		</linearGradient>
		<path id="XMLID_8_" fill="url(#XMLID_35_)" d="M29.3,21.2c-0.8,0.9-1.3,2.2-1.3,4v62.2c0,1.7,0.5,3.1,1.3,4l0.2,0.2l34.8-34.8
			v-0.4v-0.4L29.5,21L29.3,21.2z"/>
		
			<linearGradient id="XMLID_36_" gradientUnits="userSpaceOnUse" x1="95.1302" y1="58.2293" x2="27.097" y2="58.2293" gradientTransform="matrix(1 0 0 -1 0 114.4667)">
			<stop  offset="0" style="stop-color:#FFE000"/>
			<stop  offset="0.4087" style="stop-color:#FFBD00"/>
			<stop  offset="0.7754" style="stop-color:#FFA500"/>
			<stop  offset="1" style="stop-color:#FF9C00"/>
		</linearGradient>
		<path id="XMLID_7_" fill="url(#XMLID_36_)" d="M76,68.3L64.4,56.6v-0.4v-0.4L76,44.2l0.3,0.1L90,52.2c3.9,2.2,3.9,5.9,0,8.1
			l-13.8,7.8L76,68.3z"/>
		
			<linearGradient id="XMLID_38_" gradientUnits="userSpaceOnUse" x1="69.8045" y1="51.7775" x2="5.8161" y2="-12.2109" gradientTransform="matrix(1 0 0 -1 0 114.4667)">
			<stop  offset="0" style="stop-color:#FF3A44"/>
			<stop  offset="1" style="stop-color:#C31162"/>
		</linearGradient>
		<path id="XMLID_6_" fill="url(#XMLID_38_)" d="M76.3,68.1L64.4,56.2l-35,35c1.3,1.4,3.4,1.5,5.8,0.2L76.3,68.1"/>
		
			<linearGradient id="XMLID_40_" gradientUnits="userSpaceOnUse" x1="20.5173" y1="113.971" x2="49.0908" y2="85.3976" gradientTransform="matrix(1 0 0 -1 0 114.4667)">
			<stop  offset="0" style="stop-color:#32A071"/>
			<stop  offset="6.850000e-02" style="stop-color:#2DA771"/>
			<stop  offset="0.4762" style="stop-color:#15CF74"/>
			<stop  offset="0.8009" style="stop-color:#06E775"/>
			<stop  offset="1" style="stop-color:#00F076"/>
		</linearGradient>
		<path id="XMLID_5_" fill="url(#XMLID_40_)" d="M76.3,44.4L35.2,21c-2.4-1.4-4.5-1.2-5.8,0.2l35,35L76.3,44.4z"/>
		<g id="XMLID_42_">
			<path id="XMLID_4_" opacity="0.2" enable-background="new    " d="M76,67.9L35.2,91c-2.3,1.3-4.3,1.2-5.6,0l0,0l-0.2,0.2l0,0
				l0.2,0.2l0,0c1.3,1.2,3.4,1.3,5.6,0l41.1-23.3L76,67.9z"/>
			<path id="XMLID_3_" opacity="0.12" enable-background="new    " d="M29.3,90.9c-0.8-0.9-1.3-2.2-1.3-4v0.4c0,1.7,0.5,3.1,1.3,4
				l0.2-0.2L29.3,90.9z"/>
		</g>
		<path id="XMLID_2_" opacity="0.12" enable-background="new    " d="M90,59.9l-14,8l0.3,0.3L90,60.3c2-1.1,2.9-2.6,2.9-4.1l0,0
			C92.8,57.6,91.8,58.9,90,59.9z"/>
		<path id="XMLID_1_" opacity="0.25" fill="#FFFFFF" enable-background="new    " d="M35.2,21.4L90,52.6c1.8,1,2.8,2.3,2.9,3.6l0,0
			c0-1.5-1-2.9-2.9-4.1L35.2,21c-3.9-2.2-7.1-0.4-7.1,4.1v0.4C28,21.1,31.3,19.2,35.2,21.4z"/>
	</g>
</g>
<g>
</g>
<g>
</g>
<g>
</g>
<g>
</g>
<g>
</g>
<g>
</g>
</svg>
