<svg xmlns="http://www.w3.org/2000/svg" width="300" height="301" fill="none" viewBox="0 0 300 301"><path fill="url(#a)" d="M89 124.484a5.78 5.78 0 0 1 2.875-4.997l37.783-21.953c1.927-1.119 4.342.27 4.342 2.499v158.979a2 2 0 0 1-2 2H91a2 2 0 0 1-2-2V124.484z"/><path fill="url(#b)" d="M89 117.945a2 2 0 0 1 .999-1.732l41-23.7c1.333-.771 3.001.19 3.001 1.73v81.769a3 3 0 0 1-3 3H92a3 3 0 0 1-3-3v-58.067z"/><path fill="url(#c)" d="M202.699 90.088L93.016 153.066A7.998 7.998 0 0 0 89 160.003v46.76l118.687-68.526a8 8 0 0 0 4-6.928V95.292c0-4.613-4.988-7.5-8.988-5.204z"/><path fill="#6501E5" fill-rule="evenodd" d="M93.835 203.978A9.185 9.185 0 0 0 89 212.055v-10.819l4.835 2.742zM89 212.085v.053-.053z" clip-rule="evenodd"/><path fill="#9327FE" fill-rule="evenodd" d="M207.415 138.398a7.97 7.97 0 0 0 .619-3.091c0-1.702-.531-3.28-1.438-4.577l5.115-2.895v3.463a8 8 0 0 1-3.995 6.926l-.301.174z" clip-rule="evenodd"/><path fill="#9327FE" d="M206.665 130.868c-1.371-4.216-71.707-51.465-120.12-84.196-1.633-1.104-.842-3.649 1.13-3.649h57.659a2 2 0 0 1 1.135.353l61.788 42.628a7.999 7.999 0 0 1 3.457 6.585v35.344l-5.049 2.935z"/><defs><linearGradient id="a" x1="111.5" x2="111.5" y1="243.76" y2="167.84" gradientUnits="userSpaceOnUse"><stop stop-color="#00A3FF"/><stop offset="1" stop-color="#0597EA"/></linearGradient><linearGradient id="b" x1="111.5" x2="111.5" y1="170.28" y2="131.87" gradientUnits="userSpaceOnUse"><stop stop-color="#00A3FF"/><stop offset="1" stop-color="#0597EA"/></linearGradient><linearGradient id="c" x1="127.72" x2="220.07" y1="156.51" y2="104.7" gradientUnits="userSpaceOnUse"><stop stop-color="#6501E5"/><stop offset="1" stop-color="#5F01D8"/></linearGradient></defs></svg>