<?xml version="1.0" encoding="utf-8"?>
<!-- Generator: Adobe Illustrator 23.0.4, SVG Export Plug-In . SVG Version: 6.00 Build 0)  -->
<svg version="1.1" id="Layer_1" xmlns="http://www.w3.org/2000/svg" xmlns:xlink="http://www.w3.org/1999/xlink" x="0px" y="0px"
	 viewBox="0 0 379.6 112.5" enable-background="new 0 0 379.6 112.5" xml:space="preserve">
<g>
	<path d="M379.6,97.3c0,8.4-7.5,15.2-16.8,15.2h-346C7.5,112.5,0,105.7,0,97.3V15.2C0,6.8,7.5,0,16.8,0h346
		c9.3,0,16.8,6.8,16.8,15.2V97.3z"/>
	<g>
		<path fill="#FFFFFF" d="M99,76.2c-2,4.5-3,6.5-5.6,10.4c-3.6,5.5-8.7,12.4-15,12.4c-5.6,0.1-7-3.7-14.6-3.6
			c-7.6,0-9.2,3.7-14.8,3.6c-6.3-0.1-11.1-6.3-14.7-11.8c-10.1-15.4-11.1-33.5-4.9-43.1c4.4-6.8,11.4-10.8,18-10.8
			c6.7,0,10.9,3.7,16.4,3.7c5.4,0,8.6-3.7,16.4-3.7c5.8,0,12,3.2,16.4,8.7C82,50,84.4,70.7,99,76.2z"/>
		<g>
			<path fill="#FFFFFF" d="M74.2,27.3c2.8-3.6,4.9-8.7,4.2-13.9c-4.6,0.3-9.9,3.2-13.1,7.1C62.4,23.9,60.1,29,61,34
				C66,34.1,71.2,31.1,74.2,27.3z"/>
		</g>
	</g>
	<g>
		<g>
			<path fill="#FFFFFF" d="M129.7,44l-14.5,42.7h6.6l4.3-13.1h14l4.4,13.1h6.8L136.9,44H129.7z M133.2,51c0.5,1.9,1,3.9,1.7,6
				l3.9,11.3h-11.1l3.8-11.4C132.1,55.1,132.6,53.1,133.2,51z"/>
			<path fill="#FFFFFF" d="M170.2,55.1c-4.4,0-7.9,1.7-10.2,4.9l-0.3-4.2h-5.9l0,0.5c0.2,2.6,0.2,5.6,0.2,9.7v32.9h6.4V83.6
				c2,2.4,5.2,3.8,8.8,3.8c3.8,0,7.2-1.5,9.8-4.2c2.8-3,4.3-7.3,4.3-12.4c0-4.5-1.3-8.5-3.7-11.3C177.2,56.6,173.9,55.1,170.2,55.1z
				 M168.6,60.4c5.7,0,8.3,5.3,8.3,10.6c0,6.8-3.3,11-8.6,11c-3.6,0-6.7-2.5-7.6-6c-0.1-0.5-0.2-1.3-0.2-2.1v-5.2
				c0-0.5,0.1-1,0.2-1.6c0-0.2,0.1-0.4,0.1-0.5C161.8,63,165,60.4,168.6,60.4z"/>
			<path fill="#FFFFFF" d="M203.3,55.1c-4.4,0-7.9,1.7-10.2,4.9l-0.3-4.2h-5.9l0,0.5c0.2,2.6,0.2,5.6,0.2,9.7v32.9h6.4V83.6
				c2,2.4,5.2,3.8,8.8,3.8c3.8,0,7.2-1.5,9.8-4.2c2.8-3,4.3-7.3,4.3-12.4c0-4.5-1.3-8.5-3.7-11.3C210.4,56.6,207,55.1,203.3,55.1z
				 M201.7,60.4c5.7,0,8.3,5.3,8.3,10.6c0,6.8-3.3,11-8.6,11c-3.6,0-6.7-2.5-7.6-6c-0.1-0.5-0.2-1.3-0.2-2.1v-5.2
				c0-0.5,0.1-1,0.2-1.6c0-0.2,0.1-0.3,0.1-0.5C194.9,63,198.1,60.4,201.7,60.4z"/>
			<path fill="#FFFFFF" d="M244.9,62.1c-6-2.3-7.9-4.2-7.9-7.6c0-2.9,2.3-5.7,7.3-5.7c4.2,0,6.8,1.5,7.6,1.9l0.5,0.3l1.8-5.4
				l-0.4-0.2c-1.1-0.6-4.2-2.1-9.4-2.1c-8.2,0-13.9,4.9-13.9,11.8c0,5.6,3.6,9.5,11.3,12.3c5.5,2,7.5,4.1,7.5,7.7
				c0,4.1-3.1,6.6-8.2,6.6c-3.3,0-6.7-1-9.3-2.6l-0.6-0.4l-1.7,5.5l0.3,0.2c2.4,1.6,7,2.8,10.9,2.8c11.1,0,15-6.8,15-12.6
				C255.7,68.8,252.6,65.1,244.9,62.1z"/>
			<path fill="#FFFFFF" d="M267.3,48.4l-6.3,2v5.4h-4.6v5.2h4.6v15.8c0,3.8,0.7,6.5,2.2,8.2c1.4,1.6,3.7,2.5,6.2,2.5
				c2.4,0,4.2-0.5,5-0.8l0.4-0.1l-0.3-5.2l-0.6,0.2c-0.8,0.3-1.6,0.3-3,0.3c-2.5,0-3.6-1.6-3.6-5.3V60.9h7.8v-5.2h-7.8V48.4z"/>
			<path fill="#FFFFFF" d="M291.1,55.1c-9,0-15.3,6.7-15.3,16.4c0,9.4,6.1,15.9,14.8,15.9h0.1c7.4,0,15.3-5.1,15.3-16.4
				c0-4.6-1.4-8.5-4.1-11.4C299.1,56.6,295.4,55.1,291.1,55.1z M290.9,60.2c5.8,0,8.4,5.7,8.4,10.9c0,6.5-3.6,11.2-8.6,11.2h-0.1
				c-4.9,0-8.4-4.6-8.4-11C282.3,65.7,284.9,60.2,290.9,60.2z"/>
			<path fill="#FFFFFF" d="M325.7,55.4l-0.4-0.1c-0.6-0.1-1-0.2-1.6-0.2c-3.4,0-6.4,2-8.1,5.2l-0.2-4.5h-5.8l0,0.5
				c0.2,2.6,0.2,5.4,0.2,9.3l-0.1,21.1h6.4V70.2c0-0.9,0.1-1.7,0.2-2.5c0.7-4,3.4-6.5,6.8-6.5c0.7,0,1.2,0.1,1.7,0.1l0.7,0.1V55.4z"
				/>
			<path fill="#FFFFFF" d="M340.1,55c-8.6,0-14.6,6.9-14.6,16.7c0,9.5,6,15.6,15.2,15.6c4.8,0,8.2-1.1,10.2-2l0.4-0.2l-1.2-4.8
				l-0.5,0.2c-1.8,0.7-4.1,1.4-8.1,1.4c-2.8,0-9.3-0.9-9.6-9.4l20.8,0.1l0.1-0.4c0.1-0.7,0.2-1.5,0.2-2.7
				C352.9,62.9,349.6,55,340.1,55z M339.7,59.9c2,0,3.6,0.6,4.7,1.8c1.9,1.9,2.2,4.7,2.2,6H332C332.6,64,334.9,59.9,339.7,59.9z"/>
		</g>
		<g>
			<path fill="#FFFFFF" d="M115.3,14.9c1.8-0.2,3.9-0.4,6.2-0.4c4.2,0,7.1,0.8,9.1,2.5c2,1.6,3.2,4,3.2,7.3c0,3.3-1.2,6-3.2,7.8
				c-2.1,1.9-5.6,2.9-9.9,2.9c-2.1,0-3.8-0.1-5.3-0.2V14.9z M118.2,32.8c0.7,0.1,1.8,0.1,2.9,0.1c6.2,0,9.5-3.1,9.5-8.6
				c0-4.8-3-7.8-9.1-7.8c-1.5,0-2.6,0.1-3.4,0.3V32.8z"/>
			<path fill="#FFFFFF" d="M144.1,35.1c-4.3,0-7.7-2.9-7.7-7.5c0-4.9,3.6-7.7,8-7.7c4.6,0,7.7,3,7.7,7.4
				C152.1,32.8,147.9,35.1,144.1,35.1L144.1,35.1z M144.2,33.1c2.8,0,4.9-2.4,4.9-5.7c0-2.5-1.4-5.5-4.8-5.5c-3.4,0-4.9,2.9-4.9,5.6
				C139.3,30.8,141.3,33.1,144.2,33.1L144.2,33.1z"/>
			<path fill="#FFFFFF" d="M156.7,20.3l2.2,7.3c0.4,1.6,0.9,3.1,1.2,4.6h0.1c0.4-1.5,0.9-3,1.4-4.6l2.6-7.4h2.5l2.5,7.2
				c0.6,1.7,1.1,3.3,1.4,4.7h0.1c0.3-1.5,0.7-3,1.2-4.7l2.3-7.3h2.9l-5.2,14.5h-2.7l-2.5-6.9c-0.6-1.6-1-3.1-1.4-4.8h-0.1
				c-0.4,1.7-0.9,3.3-1.5,4.8l-2.6,6.9h-2.7l-4.8-14.5H156.7z"/>
			<path fill="#FFFFFF" d="M180,24.2c0-1.5,0-2.7-0.1-3.9h2.6l0.2,2.4h0.1c0.8-1.3,2.7-2.7,5.3-2.7c2.2,0,5.7,1.2,5.7,6.2v8.7h-2.9
				v-8.4c0-2.3-1-4.3-3.7-4.3c-1.9,0-3.4,1.2-3.9,2.7c-0.1,0.3-0.2,0.8-0.2,1.2v8.7H180V24.2z"/>
			<path fill="#FFFFFF" d="M198.4,13.5h2.9v21.3h-2.9V13.5z"/>
			<path fill="#FFFFFF" d="M212.7,35.1c-4.3,0-7.7-2.9-7.7-7.5c0-4.9,3.6-7.7,8-7.7c4.6,0,7.7,3,7.7,7.4
				C220.7,32.8,216.6,35.1,212.7,35.1L212.7,35.1z M212.8,33.1c2.8,0,4.9-2.4,4.9-5.7c0-2.5-1.4-5.5-4.8-5.5c-3.4,0-4.9,2.9-4.9,5.6
				C208,30.8,210,33.1,212.8,33.1L212.8,33.1z"/>
			<path fill="#FFFFFF" d="M235.7,31.3c0,1.3,0.1,2.5,0.2,3.5h-2.6l-0.3-1.8H233c-0.9,1.1-2.6,2.2-4.9,2.2c-3.3,0-4.9-2.1-4.9-4.2
				c0-3.5,3.5-5.4,9.7-5.4v-0.3c0-1.2-0.4-3.4-3.7-3.4c-1.5,0-3.1,0.4-4.2,1.1l-0.7-1.8c1.3-0.7,3.3-1.3,5.3-1.3
				c4.9,0,6.1,3,6.1,5.9V31.3z M232.9,27.4c-3.2-0.1-6.8,0.4-6.8,3.3c0,1.7,1.3,2.5,2.7,2.5c2.1,0,3.5-1.2,4-2.4
				c0.1-0.3,0.1-0.6,0.1-0.8V27.4z"/>
			<path fill="#FFFFFF" d="M254.3,13.5v17.5c0,1.3,0,2.8,0.1,3.7h-2.6l-0.1-2.5h-0.1c-0.9,1.6-2.8,2.8-5.4,2.8c-3.9,0-6.9-3-6.9-7.4
				c0-4.9,3.3-7.8,7.2-7.8c2.5,0,4.2,1,4.9,2.2h0.1v-8.6H254.3z M251.4,26.2c0-0.4,0-0.8-0.1-1.1c-0.4-1.6-2-3-4.2-3
				c-3,0-4.8,2.4-4.8,5.6c0,3,1.6,5.4,4.7,5.4c2,0,3.8-1.2,4.3-3.1c0.1-0.4,0.1-0.7,0.1-1.1V26.2z"/>
			<path fill="#FFFFFF" d="M272.7,35.1c-4.3,0-7.7-2.9-7.7-7.5c0-4.9,3.6-7.7,8-7.7c4.6,0,7.7,3,7.7,7.4
				C280.7,32.8,276.6,35.1,272.7,35.1L272.7,35.1z M272.8,33.1c2.8,0,4.9-2.4,4.9-5.7c0-2.5-1.4-5.5-4.8-5.5c-3.4,0-4.9,2.9-4.9,5.6
				C268,30.8,270,33.1,272.8,33.1L272.8,33.1z"/>
			<path fill="#FFFFFF" d="M284.4,24.2c0-1.5,0-2.7-0.1-3.9h2.6l0.2,2.4h0.1c0.8-1.3,2.7-2.7,5.3-2.7c2.2,0,5.7,1.2,5.7,6.2v8.7
				h-2.9v-8.4c0-2.3-1-4.3-3.7-4.3c-1.9,0-3.4,1.2-3.9,2.7c-0.1,0.3-0.2,0.8-0.2,1.2v8.7h-2.9V24.2z"/>
			<path fill="#FFFFFF" d="M313.4,16.8v3.5h4.2v2h-4.2v7.8c0,1.8,0.6,2.8,2.2,2.8c0.8,0,1.3-0.1,1.7-0.2l0.1,2
				c-0.6,0.2-1.5,0.4-2.6,0.4c-1.4,0-2.5-0.4-3.2-1.1c-0.8-0.8-1.1-2.1-1.1-3.8v-7.9h-2.5v-2h2.5v-2.7L313.4,16.8z"/>
			<path fill="#FFFFFF" d="M320.9,13.5h2.9v9h0.1c0.5-0.7,1.2-1.4,2.1-1.9c0.9-0.5,1.9-0.7,3-0.7c2.2,0,5.6,1.2,5.6,6.2v8.6h-2.9
				v-8.3c0-2.4-1-4.3-3.7-4.3c-1.9,0-3.4,1.2-3.9,2.6c-0.2,0.4-0.2,0.7-0.2,1.3v8.7h-2.9V13.5z"/>
			<path fill="#FFFFFF" d="M341,28c0.1,3.6,2.6,5,5.5,5c2.1,0,3.4-0.3,4.5-0.7l0.5,1.9c-1,0.4-2.8,0.9-5.4,0.9c-4.9,0-7.9-3-7.9-7.3
				c0-4.4,2.9-7.8,7.6-7.8c5.2,0,6.6,4.2,6.6,6.8c0,0.5,0,1-0.1,1.3L341,28z M349.5,26.1c0-1.6-0.8-4.3-4-4.3c-3,0-4.3,2.5-4.5,4.3
				H349.5z"/>
		</g>
	</g>
</g>
<g>
</g>
<g>
</g>
<g>
</g>
<g>
</g>
<g>
</g>
<g>
</g>
<g>
</g>
<g>
</g>
<g>
</g>
<g>
</g>
<g>
</g>
</svg>
